<mxfile host="app.diagrams.net" modified="2024-05-16T16:14:30.035Z" agent="Mozilla/5.0 (X11; Linux x86_64) AppleWebKit/537.36 (KHTML, like Gecko) Chrome/123.0.0.0 Safari/537.36" version="24.4.2" etag="R3erXa4TUTlgJw8pe8vO" type="github">
  <diagram name="Page-1" id="is95IW241-Wx3w6ifzKU">
    <mxGraphModel>
      <root>
        <mxCell id="0" />
        <mxCell id="1" parent="0" />
      </root>
    </mxGraphModel>
  </diagram>
</mxfile>
